<svg xmlns="http://www.w3.org/2000/svg" xmlns:xlink="http://www.w3.org/1999/xlink" width="142.168" height="52.405" viewBox="0 0 142.168 52.405">
  <defs>
    <clipPath id="clip-path">
      <path id="Caminho_5" data-name="Caminho 5" d="M0,8.6H142.168V-43.81H0Z" transform="translate(0 43.81)" fill="none"/>
    </clipPath>
  </defs>
  <g id="Grupo_10" data-name="Grupo 10" transform="translate(0 43.81)">
    <g id="Grupo_5" data-name="Grupo 5" transform="translate(0 -43.81)" clip-path="url(#clip-path)">
      <g id="Grupo_1" data-name="Grupo 1" transform="translate(38.15 15.097)">
        <path id="Caminho_1" data-name="Caminho 1" d="M.827,2.057C-.3,1.674-1.379,1.318-2.446.927a.527.527,0,0,1-.207-.45A11.91,11.91,0,0,1,4.667-9.012a19.335,19.335,0,0,1,9.019-1.422,20.932,20.932,0,0,1,5.9,1.1A12.018,12.018,0,0,1,27.849.812a27.432,27.432,0,0,1,.28,3.975c.031,5.145.012,10.288.013,15.433,0,1.834.407,2.252,2.211,2.275.258,0,.519.022.776,0,.329-.028.471.087.465.434-.018,1.041-.018,2.081-.025,3.122,0,.215-.035.4-.319.391a26.882,26.882,0,0,1-3.1-.151,4.516,4.516,0,0,1-3.839-4.663c-.045-1.116-.012-2.234-.018-3.352,0-.158-.022-.315-.038-.551-.37.74-.644,1.421-1.029,2.031a13.257,13.257,0,0,1-5.64,4.865,18.031,18.031,0,0,1-7.171,1.749A17.724,17.724,0,0,1,1.09,24.334a9.327,9.327,0,0,1-5.053-6.348,9.055,9.055,0,0,1,1.2-7.132A8.807,8.807,0,0,1,1.711,7.523,20.676,20.676,0,0,1,7.669,6.247c3.508-.218,7.024-.3,10.535-.492,1.27-.069,2.536-.267,3.8-.456a3.708,3.708,0,0,0,1.1-.433,2.079,2.079,0,0,0,1.161-2.274,13.284,13.284,0,0,0-1.053-4.528,7.562,7.562,0,0,0-5.608-4.2,23.066,23.066,0,0,0-9.16-.127A9.116,9.116,0,0,0,3.366-3.645,10.623,10.623,0,0,0,1,1.34c-.057.231-.111.463-.172.717M24.273,7.8a18.724,18.724,0,0,1-7.322,1.535c-2.689.133-5.385.134-8.077.208a17.272,17.272,0,0,0-5.3.836A5.249,5.249,0,0,0-.329,14.963a5.834,5.834,0,0,0,2.341,5.761A10.509,10.509,0,0,0,5.986,22.49a20.125,20.125,0,0,0,8.513-.057,15.175,15.175,0,0,0,6.794-3.071,7.536,7.536,0,0,0,2.994-6.428c-.062-1.406-.013-2.816-.014-4.225V7.8" transform="translate(4.215 10.482)" fill="#eee"/>
      </g>
      <g id="Grupo_2" data-name="Grupo 2" transform="translate(97.091 15.101)">
        <path id="Caminho_2" data-name="Caminho 2" d="M4.677,4.646a13.866,13.866,0,0,1-8.79,7.608,18.521,18.521,0,0,1-8.875.706,15.367,15.367,0,0,1-7.128-2.851A9.32,9.32,0,0,1-22.8-1.652a8.542,8.542,0,0,1,4.9-4.03A20.49,20.49,0,0,1-11.94-6.955c3.492-.22,6.993-.3,10.488-.492,1.3-.072,2.6-.278,3.889-.461a3.4,3.4,0,0,0,1.024-.37,1.88,1.88,0,0,0,1.2-1.8,14.369,14.369,0,0,0-.74-4.276A7.543,7.543,0,0,0-2-19.328a23.012,23.012,0,0,0-9.207-.13,8.725,8.725,0,0,0-5.726,3.447,10.539,10.539,0,0,0-1.736,4.395c-.065.378-.147.5-.548.343-.894-.342-1.8-.646-2.715-.933-.34-.105-.411-.262-.349-.6a12.049,12.049,0,0,1,7.987-9.683,20.481,20.481,0,0,1,8.665-1.136,19.682,19.682,0,0,1,6,1.242A11.975,11.975,0,0,1,8.07-13.35a22.743,22.743,0,0,1,.439,4.925c.026,5.145.01,10.29.01,15.433,0,1.852.4,2.261,2.249,2.286,1.194.016,1.195.016,1.193,1.217,0,.766-.01,1.531-.016,2.3,0,.224,0,.449-.321.434a28.645,28.645,0,0,1-3.1-.156A4.491,4.491,0,0,1,4.694,8.614c-.053-1.146-.014-2.3-.017-3.444V4.646M4.663-5.382A20,20,0,0,1-2.822-3.86c-3.04.144-6.083.184-9.123.3a13.479,13.479,0,0,0-4.285.8,5.215,5.215,0,0,0-3.729,4.58A5.812,5.812,0,0,0-17.635,7.5a10.849,10.849,0,0,0,4.012,1.789,19.766,19.766,0,0,0,7.213.165A16.423,16.423,0,0,0,.88,6.757,7.773,7.773,0,0,0,4.672-.054c-.03-1.606-.008-3.214-.01-4.821v-.507" transform="translate(23.84 23.68)" fill="#eee"/>
      </g>
      <g id="Grupo_3" data-name="Grupo 3" transform="translate(0 14.856)">
        <path id="Caminho_3" data-name="Caminho 3" d="M5.017,4.117,8.6,5.463c-.122.323-.22.639-.358.935a16.453,16.453,0,0,1-7.67,8.248,18.35,18.35,0,0,1-6.733,1.839,19.355,19.355,0,0,1-8.014-.883A15.648,15.648,0,0,1-24.609,4.4,22.872,22.872,0,0,1-23.6-11.52a15.482,15.482,0,0,1,11.629-9.036A19.233,19.233,0,0,1,.244-19.182a16.213,16.213,0,0,1,8.3,9.223c.01.024,0,.059-.012.133l-3.36,1.4c-.154-.354-.3-.682-.44-1.014A11.7,11.7,0,0,0,.409-14.93a12.525,12.525,0,0,0-4.99-1.909,15.8,15.8,0,0,0-7.889.451,12.676,12.676,0,0,0-8.081,7.811,17.874,17.874,0,0,0,.4,13.94A12.07,12.07,0,0,0-10.8,12.49a17.169,17.169,0,0,0,7.516-.306A11.276,11.276,0,0,0,4.623,5.066c.12-.3.244-.589.394-.949" transform="translate(25.571 20.985)" fill="#eee"/>
      </g>
      <g id="Grupo_4" data-name="Grupo 4" transform="translate(78.653 0.596)">
        <path id="Caminho_4" data-name="Caminho 4" d="M0,8.435V-42.992H3.822c0,.187,0,.362,0,.538q.011,23.426.02,46.851c0,1.209-.011,2.419-.016,3.628,0,.2.022.411-.283.41-1.169,0-2.339,0-3.543,0" transform="translate(0 42.992)" fill="#eee"/>
      </g>
    </g>
    <path id="Caminho_6" data-name="Caminho 6" d="M74.348,5.686h3.8V-31.019h-3.8Z" transform="translate(14.586 2.509)" fill="#eee"/>
    <g id="Grupo_9" data-name="Grupo 9" transform="translate(0 -43.81)" clip-path="url(#clip-path)">
      <g id="Grupo_6" data-name="Grupo 6" transform="translate(88.764 0.565)">
        <path id="Caminho_7" data-name="Caminho 7" d="M0,.637v-3.88H1.167c.852,0,1.7.011,2.557,0,.293-.006.4.085.4.388,0,1.025.018,2.05.036,3.077,0,.3-.078.435-.419.429C2.514.624,1.282.637,0,.637" transform="translate(0 3.248)" fill="#eee"/>
      </g>
      <g id="Grupo_7" data-name="Grupo 7" transform="translate(131.615 2.51)">
        <path id="Caminho_8" data-name="Caminho 8" d="M1.474.745A4.519,4.519,0,0,1-3.019,5.29,4.519,4.519,0,0,1-7.512.745,4.519,4.519,0,0,1-3.019-3.8,4.519,4.519,0,0,1,1.474.745" transform="translate(7.512 3.799)" fill="#f9a61a"/>
      </g>
      <g id="Grupo_8" data-name="Grupo 8" transform="translate(128.922 0)">
        <path id="Caminho_9" data-name="Caminho 9" d="M.571,2.16A6.846,6.846,0,0,1-1.979-.406,6.981,6.981,0,0,1-2.91-3.94a6.907,6.907,0,0,1,.945-3.535A7.033,7.033,0,0,1,.613-10.053a6.922,6.922,0,0,1,3.551-.956,8.048,8.048,0,0,1,3.128.6A7.886,7.886,0,0,1,9.828-8.728l-1.3,1.083A5.736,5.736,0,0,0,6.6-8.971a6.207,6.207,0,0,0-2.438-.47,5.137,5.137,0,0,0-2.677.74A5.517,5.517,0,0,0-.485-6.691,5.4,5.4,0,0,0-1.219-3.94,5.4,5.4,0,0,0-.5-1.2a5.465,5.465,0,0,0,1.944,2,5.148,5.148,0,0,0,2.72.742A6.21,6.21,0,0,0,6.954.906,5.667,5.667,0,0,0,9.04-.833l1.3,1.111A7.9,7.9,0,0,1,7.658,2.345,7.985,7.985,0,0,1,4.164,3.1,7.028,7.028,0,0,1,.571,2.16" transform="translate(2.91 11.009)" fill="#f9a61a"/>
      </g>
    </g>
  </g>
</svg>
